<?xml version="1.0" standalone="no"?>
<!DOCTYPE svg PUBLIC "-//W3C//DTD SVG 20010904//EN"
 "http://www.w3.org/TR/2001/REC-SVG-20010904/DTD/svg10.dtd">
<svg version="1.0" xmlns="http://www.w3.org/2000/svg"
 width="300.000000pt" height="200.000000pt" viewBox="0 0 300.000000 200.000000"
 preserveAspectRatio="xMidYMid meet">
<metadata>
Created by potrace 1.10, written by Peter Selinger 2001-2011
</metadata>
<g transform="translate(0.000000,200.000000) scale(0.100000,-0.100000)"
fill="#000000" stroke="none">
<path d="M0 1000 l0 -1000 1500 0 1500 0 0 1000 0 1000 -1500 0 -1500 0 0
-1000z m2380 620 c-19 -5 -71 -11 -115 -13 -44 -2 -60 -2 -35 0 25 2 49 8 55
14 5 5 36 9 70 8 54 -1 57 -2 25 -9z m55 -186 c-3 -17 -12 -39 -20 -50 -13
-17 -13 -14 0 25 8 24 16 85 17 135 l2 91 4 -85 c2 -47 1 -99 -3 -116z m-300
155 c-22 -4 -56 -8 -75 -9 -27 -1 -45 -11 -80 -45 -25 -25 -48 -45 -51 -45 -3
0 -20 16 -38 35 l-31 35 -115 0 c-92 0 -115 -3 -115 -14 0 -10 -18 -16 -60
-21 -67 -8 -75 -14 -83 -70 -4 -22 -11 -41 -17 -43 -5 -2 -11 -11 -12 -20 -1
-9 -4 24 -7 73 l-6 90 -78 -80 c-43 -44 -73 -69 -66 -55 17 35 109 130 125
130 8 0 14 7 14 15 0 8 5 15 10 15 6 0 10 -25 10 -55 0 -59 14 -74 25 -26 6
28 10 30 71 36 44 5 64 12 64 21 0 11 25 14 120 14 l120 0 37 -34 37 -34 27
38 c31 43 73 58 159 58 55 0 55 0 15 -9z m255 -27 c0 -4 -4 -12 -9 -17 -9 -10
-55 -156 -86 -272 -24 -88 -53 -112 -146 -123 -183 -21 -239 -22 -245 -6 -3 9
13 80 37 158 33 110 49 151 73 176 16 17 38 32 47 32 10 0 19 4 21 10 2 5 55
13 118 16 63 4 129 13 145 20 35 16 45 17 45 6z m-506 -91 c37 -38 38 -40 26
-76 -27 -81 -92 -155 -136 -155 -26 0 -24 -3 35 -62 l61 -63 -52 -9 -52 -8
-46 50 c-25 28 -58 66 -75 86 -16 20 -33 36 -36 36 -3 0 -16 -36 -29 -80 -23
-80 -23 -81 -84 -120 -62 -41 -92 -50 -83 -27 3 7 31 100 62 207 32 107 63
200 70 206 11 12 208 50 270 53 24 1 40 -8 69 -38z m-760 23 c11 -4 16 -18 15
-43 -1 -36 -1 -36 -8 -6 -6 27 -10 30 -41 29 -71 -2 -325 -35 -333 -43 -4 -4
-23 -52 -43 -107 -19 -54 -41 -112 -48 -129 -8 -16 -25 -60 -38 -97 -15 -45
-28 -68 -38 -67 -9 0 -10 2 -3 5 6 3 39 88 73 190 34 101 66 184 71 184 5 0 9
6 9 14 0 23 9 25 141 37 68 7 126 15 129 20 3 4 21 9 40 12 19 2 40 5 47 5 6
1 18 -1 27 -4z m296 -67 c0 -22 -54 -223 -86 -319 -10 -32 -21 -48 -32 -48 -9
0 -77 -7 -151 -16 -73 -8 -135 -14 -136 -12 -2 2 16 63 40 136 50 155 77 202
118 202 25 0 27 -3 21 -27 -6 -25 -45 -158 -60 -206 -6 -19 -5 -19 87 4 35 9
38 13 60 82 12 39 26 74 29 77 4 3 13 23 20 45 12 38 64 105 82 105 4 0 8 -10
8 -23z m-220 -1 c-6 -9 -19 -12 -28 -8 -17 6 -14 7 37 21 2 1 -2 -5 -9 -13z
m65 -23 c-3 -21 -11 -42 -17 -48 -7 -7 -8 -4 -5 10 4 11 9 32 13 48 9 41 17
33 9 -10z m-171 5 c-20 -67 -21 -68 -69 -68 -25 0 -45 -4 -45 -9 0 -4 -27 -11
-61 -14 -68 -6 -64 -4 -74 -36 -8 -26 -11 -26 143 -5 l43 6 -16 -38 c-8 -21
-17 -40 -19 -42 -2 -2 -45 -11 -94 -20 -90 -17 -91 -17 -106 -54 -8 -21 -13
-38 -12 -38 2 0 47 7 101 15 54 8 101 13 103 10 5 -5 -17 -65 -28 -77 -6 -8
-43 -16 -160 -38 -128 -25 -148 -27 -145 -16 24 80 59 182 64 186 3 3 7 16 9
30 1 13 7 27 13 31 6 3 12 18 12 33 1 14 6 26 11 26 4 0 6 7 2 15 -3 8 -1 15
4 15 5 0 7 6 5 13 -3 6 3 22 13 34 14 18 37 24 137 38 66 9 122 18 124 21 2 2
15 4 28 4 21 0 23 -3 17 -22z m1283 -135 c-4 -3 -7 0 -7 7 0 7 3 10 7 7 3 -4
3 -10 0 -14z m80 -29 c-3 -3 -12 -4 -19 -1 -8 3 -5 6 6 6 11 1 17 -2 13 -5z
m319 -42 c-5 -8 -76 -4 -76 4 0 2 18 4 41 4 22 0 38 -4 35 -8z m-211 -32 c-77
-10 -161 -21 -187 -24 -36 -5 -48 -3 -48 6 0 9 13 12 43 10 23 -1 89 4 147 11
58 8 123 14 145 14 22 0 -23 -8 -100 -17z m181 -36 c-19 -18 -21 -2 -3 26 9
17 13 18 15 5 2 -8 -4 -22 -12 -31z m-79 -15 c-9 -6 -15 -14 -12 -20 4 -5 1
-9 -5 -9 -6 0 -9 -4 -6 -8 3 -5 -5 -14 -17 -19 -28 -13 -219 -43 -272 -43 -22
0 -45 -4 -52 -8 -13 -8 -36 -62 -30 -69 3 -2 57 3 121 12 151 19 153 19 171
-9 14 -22 13 -29 -15 -108 l-31 -85 -72 -11 c-40 -6 -106 -14 -147 -17 -41 -3
-103 -11 -137 -19 l-62 -12 5 35 c3 20 11 42 18 49 10 10 240 41 309 42 14 0
47 51 47 73 0 2 -35 -2 -77 -8 -43 -7 -117 -15 -165 -19 l-86 -7 5 32 c2 17
17 65 31 107 31 89 21 84 212 103 69 6 152 15 185 19 33 4 69 7 80 8 18 1 19
1 2 -9z m53 -45 c-6 -16 -27 -47 -46 -70 -19 -23 -34 -53 -34 -66 0 -13 -5
-30 -10 -38 -6 -10 -7 -2 -3 25 4 23 22 61 44 90 20 28 40 60 44 73 4 13 9 22
11 19 3 -2 0 -17 -6 -33z m-651 -76 c-30 -35 -55 -65 -56 -66 -1 -2 -10 -2
-20 0 -14 4 -4 18 50 72 37 38 70 66 74 63 3 -3 -19 -34 -48 -69z m-189 46 c0
-4 -20 -70 -45 -147 -25 -77 -44 -142 -41 -144 2 -2 50 1 106 7 121 12 170 13
170 3 0 -5 -18 -22 -39 -40 -37 -30 -48 -34 -191 -53 -84 -11 -163 -20 -175
-20 l-24 0 31 93 c17 50 35 95 40 98 6 3 10 10 10 15 0 5 4 20 9 32 5 13 7 27
4 32 -3 5 -1 10 5 12 6 2 11 18 13 36 1 17 5 32 8 32 4 0 9 9 12 19 3 14 16
21 43 24 22 2 45 4 52 5 6 1 12 -1 12 -4z m-184 -41 c-3 -10 -22 -72 -42 -138
-20 -66 -39 -130 -43 -143 -8 -27 -144 -138 -149 -122 -3 7 24 104 59 216 l62
204 59 0 c52 0 59 -2 54 -17z m-1113 -5 c-13 -6 -25 -19 -29 -30 -3 -11 -17
-24 -31 -31 -23 -10 -23 -12 -7 -24 15 -11 15 -17 4 -60 -8 -26 -17 -50 -21
-53 -3 -3 -35 -93 -70 -200 -46 -139 -65 -187 -67 -166 -2 16 3 45 11 65 9 20
32 89 51 153 20 64 41 120 46 123 6 4 8 11 5 16 -4 5 -1 9 4 9 6 0 11 11 11
25 0 14 4 25 9 25 5 0 13 9 16 21 5 16 -1 28 -27 50 l-33 28 43 1 c23 0 43 5
43 10 1 6 2 15 3 21 0 7 10 15 21 20 30 11 43 9 18 -3z m917 -11 c0 -2 -11
-36 -24 -75 -14 -40 -37 -115 -52 -168 -22 -78 -32 -97 -53 -108 -26 -13 -101
-30 -101 -23 0 2 7 27 16 56 8 29 14 55 12 56 -2 2 -41 1 -88 -3 l-83 -7 -20
-58 c-20 -60 -18 -59 -101 -72 -30 -5 -38 -3 -34 7 3 7 31 90 62 185 31 94 63
177 71 183 8 6 54 15 102 19 91 8 293 14 293 8z m-500 -88 c0 -19 -54 -155
-67 -171 -9 -10 -34 -18 -61 -20 l-45 -3 26 -31 c15 -18 27 -37 27 -43 0 -6 3
-11 8 -11 7 0 72 -102 72 -114 0 -12 -117 49 -140 73 -45 49 -70 81 -70 89 0
4 -13 22 -30 40 -45 50 -40 58 41 66 57 6 76 12 102 36 18 16 30 30 27 33 -3
2 -48 2 -101 -1 l-96 -4 -44 -136 -44 -137 -70 -47 c-38 -26 -71 -45 -73 -43
-2 2 26 98 63 213 l68 209 181 19 c156 17 184 18 204 6 12 -8 22 -18 22 -23z
m-600 21 c0 -5 -14 -10 -31 -10 -17 0 -28 4 -24 10 3 6 17 10 31 10 13 0 24
-4 24 -10z m30 0 c0 -5 -4 -10 -10 -10 -5 0 -10 5 -10 10 0 6 5 10 10 10 6 0
10 -4 10 -10z m1628 -2 c-2 -6 -15 -18 -29 -27 -24 -15 -24 -15 -6 5 9 11 14
24 10 27 -3 4 2 7 11 7 10 0 16 -5 14 -12z m559 -55 c-4 -3 -7 0 -7 7 0 7 3
10 7 7 3 -4 3 -10 0 -14z m-17 -58 c-16 -47 -23 -40 -8 8 6 20 13 35 16 33 2
-3 -1 -21 -8 -41z m-630 27 c0 -4 -9 -13 -20 -20 -19 -12 -20 -11 -8 8 13 20
28 27 28 12z m585 -150 c-13 -11 -151 -37 -305 -58 -121 -16 -173 -33 -245
-79 l-30 -19 19 22 c11 12 25 22 31 22 7 0 15 6 18 13 12 32 94 56 272 80 196
27 254 31 240 19z m-1326 -59 c0 -10 -5 -27 -10 -38 -7 -15 -7 -12 -3 13 5 29
3 33 -12 30 -10 -2 -23 -17 -28 -33 -26 -87 -24 -85 -82 -85 l-54 0 0 -39 0
-40 -37 5 c-21 3 -75 12 -121 21 -78 14 -86 18 -127 62 -43 45 -44 46 -59 26
-16 -20 -16 -20 -9 2 11 31 23 29 68 -15 36 -36 49 -41 134 -56 51 -10 105
-22 118 -27 22 -8 24 -7 18 8 -20 49 -18 60 15 67 18 3 48 6 66 6 30 0 34 3
44 41 14 51 28 68 58 69 15 0 22 -6 21 -17z m811 9 c0 -29 -31 -40 -160 -56
-75 -9 -148 -16 -163 -16 -15 0 -27 -6 -27 -12 0 -10 -3 -9 -9 1 -6 10 -22 12
-57 8 -27 -3 -40 -3 -29 0 11 3 22 9 25 13 3 5 84 16 180 25 96 9 186 23 200
30 31 16 40 17 40 7z m-450 -48 c0 -8 -3 -13 -8 -10 -4 2 -46 -29 -92 -70 -47
-40 -88 -74 -91 -74 -3 0 -3 27 -1 59 l4 59 -38 -9 c-61 -14 -174 -12 -169 4
3 7 28 12 68 13 34 1 81 3 105 6 l42 4 0 -48 c0 -26 3 -48 6 -48 3 0 30 20 58
45 29 25 57 45 62 45 5 0 15 9 22 20 15 24 32 26 32 4z m-915 -93 c-3 -12 -14
-21 -24 -21 -10 0 -78 -27 -150 -60 -119 -54 -161 -69 -161 -56 0 2 3 12 6 21
5 12 9 13 14 5 6 -10 16 -9 40 4 18 9 41 16 50 16 10 0 28 8 41 18 13 10 45
27 71 38 27 10 48 22 48 27 0 4 11 7 24 7 13 0 27 7 30 16 9 24 19 10 11 -15z"/>
<path d="M2195 1455 c-5 -2 -30 -6 -55 -9 -55 -8 -61 -17 -94 -132 l-24 -87
66 7 c75 8 99 24 108 72 3 19 9 34 13 34 3 0 7 11 7 24 1 14 9 39 18 57 9 18
16 34 16 36 0 4 -41 3 -55 -2z"/>
<path d="M1684 1403 c-38 -4 -42 -7 -53 -44 -7 -23 -10 -43 -7 -46 8 -8 129
17 144 29 17 14 15 58 -2 58 -8 0 -20 1 -28 3 -7 2 -31 2 -54 0z"/>
<path d="M1300 900 c0 -5 -22 -10 -48 -10 -56 0 -75 -12 -91 -59 l-11 -34 61
7 c34 3 76 6 94 6 29 0 32 4 47 50 l16 50 -34 0 c-19 0 -34 -4 -34 -10z"/>
</g>
</svg>
